<?xml version="1.0" encoding="UTF-8"?>
<svg width="221px" height="45px" viewBox="0 0 221 45" version="1.1" xmlns="http://www.w3.org/2000/svg" xmlns:xlink="http://www.w3.org/1999/xlink">
    <!-- Generator: Sketch 51.3 (57544) - http://www.bohemiancoding.com/sketch -->
    <title>Group</title>
    <desc>Created with Sketch.</desc>
    <defs></defs>
    <g id="Page-1" stroke="none" stroke-width="1" fill="none" fill-rule="evenodd">
        <g id="Surveillens-Visiting-Card-Front-_White-BG-with-Black__1" transform="translate(-1.000000, 0.000000)" fill-rule="nonzero">
            <g id="Group" transform="translate(111.400000, 22.500000) scale(-1, 1) rotate(-180.000000) translate(-111.400000, -22.500000) translate(0.900000, 0.500000)">
                <g id="s-ai-icon" transform="translate(-0.000000, 0.000000)">
                    <path d="M18.4947761,43.5930636 C17.2880597,43.0843931 17.0171642,42.6265896 17.0171642,40.9988439 C17.0171642,39.7271676 17.0910448,39.5236994 17.411194,39.6508671 C17.8544776,39.8289017 18.7410448,39.3965318 18.7410448,39.0404624 C18.7410448,38.8878613 18.5440299,38.9132948 18.2731343,39.065896 C18.0268657,39.2439306 17.6328358,39.2947977 17.411194,39.2184971 C16.869403,38.9895954 16.8201493,34.7676301 17.3865672,34.5641618 C18.0268657,34.2843931 19.4798507,34.9710983 19.8492537,35.734104 C20.5634328,37.1583815 20.169403,39.5491329 19.2335821,39.5491329 C19.1104478,39.5491329 18.888806,39.7780347 18.7410448,40.083237 C18.4208955,40.6936416 18.6179104,41.8381503 19.0119403,41.8381503 C19.1843284,41.8381503 19.2335821,41.6092486 19.1597015,41.2786127 C18.9873134,40.6427746 19.3567164,39.8034682 19.8246269,39.8034682 C19.9970149,39.8034682 20.341791,40.0323699 20.5880597,40.3121387 C21.2037313,41.0242775 22.4843284,40.9734104 23.3462687,40.2104046 C23.7156716,39.8797688 23.9619403,39.4982659 23.838806,39.3965318 C23.7402985,39.2947977 23.4201493,39.4473988 23.1,39.7526012 C22.4350746,40.4138728 21.5485075,40.4647399 20.9574627,39.9306358 C20.6126866,39.6 20.5634328,39.1930636 20.6373134,37.8196532 C20.7850746,35.6069364 20.2432836,34.6404624 18.691791,34.182659 C17.041791,33.699422 17.0171642,33.6485549 17.0171642,30.9526012 C17.0171642,29.0450867 17.1156716,28.4346821 17.4358209,28.0531792 C17.9037313,27.4936416 17.6820896,27.1375723 17.1402985,27.5953757 C16.8447761,27.849711 16.6970149,27.849711 16.4014925,27.5953757 C15.8350746,27.1121387 15.6626866,27.4682081 16.130597,28.1549133 C16.3768657,28.5109827 16.5246269,29.2485549 16.5246269,30.1895954 C16.5246269,31.5884393 16.5,31.6647399 15.9089552,31.6647399 C15.4164179,31.6647399 15.2932836,31.5375723 15.2932836,31.0289017 C15.2932836,30.5965318 15.0962687,30.2913295 14.6776119,30.0878613 C13.9880597,29.782659 13.8895522,29.4011561 14.3820896,28.8924855 C14.6283582,28.6381503 14.5791045,28.5109827 14.1850746,28.2057803 C13.7910448,27.900578 13.6679104,27.900578 13.3970149,28.1803468 C13.1261194,28.4601156 13.1261194,28.6890173 13.4462687,29.4520231 L13.8156716,30.3930636 L12.0179104,30.3930636 C10.3432836,30.3930636 10.1708955,30.3421965 9.50597015,29.6300578 C8.93955224,29.0196532 8.59477612,28.867052 7.78208955,28.867052 C7.24029851,28.867052 6.64925373,28.7398844 6.50149254,28.5872832 C6.15671642,28.2312139 5.44253731,28.4601156 5.44253731,28.9433526 C5.44253731,29.5283237 6.15671642,30.0115607 6.47686567,29.6809249 C6.64925373,29.5028902 7.16641791,29.3757225 7.65895522,29.3757225 C8.3238806,29.3757225 8.71791045,29.5791908 9.25970149,30.1387283 C9.94925373,30.8763006 10.0231343,30.9017341 12.3873134,30.9017341 C14.8007463,30.9017341 14.8007463,30.9017341 14.8007463,31.5375723 C14.8007463,32.0716763 14.9238806,32.1734104 15.5395522,32.1734104 C16.2044776,32.1734104 16.2783582,32.249711 16.2783582,32.9364162 C16.2783582,33.6739884 16.2537313,33.699422 15.0962687,33.699422 C14.4313433,33.699422 13.6925373,33.5468208 13.4216418,33.3179191 C13.1507463,33.0890173 12.3873134,32.9618497 11.5007463,32.9364162 C10.3432836,32.9364162 9.92462687,32.8092486 9.33358209,32.300578 C8.69328358,31.7410405 8.37313433,31.6647399 6.6738806,31.6647399 C5.63955224,31.6647399 4.43283582,31.5884393 3.98955224,31.5121387 C3.42313433,31.3849711 3.20149254,31.4612717 3.07835821,31.766474 C2.83208955,32.4277457 3.3738806,32.8601156 3.96492537,32.4786127 C4.2358209,32.300578 5.29477612,32.1734104 6.45223881,32.1734104 C8.22537313,32.1734104 8.52089552,32.249711 9.1858209,32.8092486 C9.77686567,33.3179191 10.1708955,33.4450867 11.3037313,33.4450867 C12.0671642,33.4450867 12.8798507,33.5722543 13.0768657,33.699422 C13.3970149,33.9028902 13.3723881,34.0300578 12.8798507,34.5132948 C12.3873134,35.0219653 12.0179104,35.1236994 9.55522388,35.2254335 L6.79701493,35.3526012 L6.62462687,36.2427746 C6.27985075,38.0231214 6.30447761,38.1248555 6.77238806,38.2265896 C7.48656716,38.3791908 7.80671642,37.8705202 7.41268657,37.1583815 C6.79701493,35.9375723 7.16641791,35.734104 9.80149254,35.734104 C12.091791,35.7086705 12.2641791,35.683237 13.1753731,34.9710983 C13.9141791,34.3861272 14.4067164,34.2080925 15.219403,34.2080925 L16.2783582,34.2080925 L16.2783582,35.4797688 L16.2783582,36.7514451 L14.7022388,36.7514451 C13.1753731,36.7514451 13.0768657,36.7768786 12.4365672,37.6416185 C11.7716418,38.5572254 10.9589552,38.7861272 10.441791,38.2520231 C10.0231343,37.8196532 9.38283582,38.1757225 9.38283582,38.7861272 C9.38283582,39.2693642 9.48134328,39.2947977 10.6880597,39.1421965 C11.7470149,38.9895954 12.091791,38.8115607 12.658209,38.1248555 C13.2985075,37.3109827 13.4708955,37.2601156 14.8253731,37.2601156 L16.2783582,37.2601156 L16.2783582,38.2774566 L16.2783582,39.2947977 L14.9485075,39.2947977 C13.6432836,39.2947977 13.5940299,39.3202312 13.3231343,40.1595376 C13.1753731,40.6427746 12.9044776,41.100578 12.7074627,41.1768786 C12.2395522,41.3549133 12.2149254,42.2450867 12.658209,42.4231214 C13.1753731,42.6265896 13.6186567,42.2196532 13.5201493,41.6855491 C13.4462687,41.4057803 13.569403,40.8971098 13.741791,40.5156069 C14.0373134,39.8797688 14.2097015,39.8034682 15.2440299,39.8034682 L16.4261194,39.8034682 L16.2783582,41.100578 C16.1059701,42.982659 15.3671642,43.4913295 13.0029851,43.4913295 C10.6634328,43.465896 9.23507463,42.7791908 6.00895522,40.083237 C3.27537313,37.8196532 2.41343284,36.6751445 1.25597015,33.8011561 C0.17238806,31.1052023 0.0492537313,29.7063584 0.788059701,28.3583815 C1.79776119,26.5017341 1.13283582,26.5780347 16.4507463,26.5780347 C29.6507463,26.5780347 30.2171642,26.6034682 30.980597,27.0867052 C32.1626866,27.8242775 32.6059701,28.9179191 32.458209,30.6982659 C32.2365672,33.3179191 30.0447761,37.2855491 28.0007463,38.8369942 C26.9910448,39.5745665 26.9910448,39.5745665 26.5970149,39.065896 C26.3507463,38.7606936 26.2276119,38.2774566 26.3014925,37.8450867 C26.4,37.2855491 26.3507463,37.2092486 26.1537313,37.5144509 C25.7843284,38.0231214 25.8089552,39.116763 26.2029851,39.5236994 C26.4492537,39.7780347 26.2276119,40.083237 25.1440299,41.100578 C22.9276119,43.1861272 20.0462687,44.2543353 18.4947761,43.5930636 Z M30.1432836,34.7421965 C30.4634328,34.182659 30.5373134,33.8265896 30.3895522,33.6739884 C30.2171642,33.4959538 30.0447761,33.6739884 29.8723881,34.182659 C29.7246269,34.6404624 29.2320896,35.2 28.7395522,35.5052023 C28.2470149,35.8104046 27.9268657,36.1410405 28.0007463,36.2682081 C28.2223881,36.6751445 29.6261194,35.6578035 30.1432836,34.7421965 Z M25.0208955,34.8184971 C25.3902985,34.3861272 25.7843284,34.2080925 26.4492537,34.2080925 C27.0895522,34.2080925 27.5574627,34.0046243 28.0992537,33.5213873 C28.8626866,32.783815 29.4044776,31.1560694 28.8626866,31.1560694 C28.7149254,31.1560694 28.591791,31.3849711 28.591791,31.6901734 C28.591791,32.5040462 27.2865672,33.699422 26.4,33.699422 C25.3902985,33.699422 24.011194,32.4023121 23.6171642,31.1306358 C23.3708955,30.2404624 23.3955224,30.0369942 23.838806,29.4265896 C24.1097015,29.0450867 24.6514925,28.6890173 25.0208955,28.6127168 C25.4149254,28.5364162 25.7104478,28.4092486 25.6858209,28.3075145 C25.661194,28.1803468 25.5873134,28.1040462 25.5134328,28.1040462 C25.4395522,28.1040462 25.1686567,28.1040462 24.8977612,28.1040462 C24.011194,28.1040462 23.1738806,29.2231214 23.1738806,30.3930636 C23.1738806,31.5884393 23.4447761,32.249711 24.3559701,33.267052 C24.8731343,33.8011561 24.9470149,34.0554913 24.75,34.3861272 C24.208209,35.2763006 23.7402985,35.3780347 22.9276119,34.7676301 C22.0656716,34.0809249 21.4007463,34.2843931 22.2380597,34.9456647 C23.3955224,35.8612717 24.208209,35.8358382 25.0208955,34.8184971 Z M21.6962687,32.783815 C21.6962687,32.6820809 21.3761194,32.2242775 20.9574627,31.7410405 C20.3910448,31.1052023 20.2186567,30.6473988 20.2186567,29.8589595 C20.2186567,29.2485549 20.1201493,28.8924855 19.9723881,28.9942197 C19.8492537,29.0705202 19.7261194,29.6554913 19.7261194,30.2913295 C19.7261194,31.2578035 19.6276119,31.4612717 19.1104478,31.7156069 C18.4455224,32.0208092 18.2731343,32.4277457 18.8149254,32.4277457 C18.9873134,32.4277457 19.3567164,32.249711 19.6276119,32.0462428 C20.0955224,31.7156069 20.1940299,31.7410405 20.711194,32.300578 C21.2529851,32.9109827 21.6962687,33.1144509 21.6962687,32.783815 Z M30.438806,29.833526 C29.7246269,29.4520231 29.330597,28.8416185 29.330597,28.1803468 C29.330597,27.849711 29.2320896,27.5953757 29.0843284,27.5953757 C28.6410448,27.5953757 28.8134328,28.7653179 29.3552239,29.4774566 C29.6261194,29.833526 30.0940299,30.1387283 30.3895522,30.1387283 C30.9313433,30.1132948 30.9313433,30.1132948 30.438806,29.833526 Z" id="Shape" fill="#14AED5"></path>
                    <path d="M0.270895522,23.3479769 L0.270895522,18.7445087 L1.52686567,19.2277457 C8.9641791,22.1526012 24.2328358,22.2034682 31.1283582,19.3549133 L32.5320896,18.7445087 L32.5320896,23.3734104 C32.5074627,27.8242775 32.5074627,27.9514451 32.088806,27.2901734 C31.2022388,25.7641618 31.4238806,25.7895954 16.0074627,25.865896 L1.94552239,25.9421965 L1.10820896,26.934104 L0.270895522,27.9260116 L0.270895522,23.3479769 Z" id="Shape" fill="#14AED5"></path>
                    <path d="M13.569403,20.8046243 C8.91492537,20.5248555 4.0880597,19.5583815 1.47761194,18.3884393 C0.369402985,17.9052023 0.270895522,17.8034682 0.270895522,17.0150289 L0.270895522,16.150289 L1.7238806,16.8878613 C3.27537313,17.7017341 5.91044776,18.4647399 9.01343284,18.9988439 C12.1164179,19.5075145 21.9425373,19.4312139 25.0208955,18.8462428 C27.8283582,18.3121387 30.241791,17.6 31.6208955,16.8624277 C32.7291045,16.2774566 32.8522388,16.3537572 32.630597,17.2947977 C32.4335821,18.1595376 31.2514925,18.7445087 28.0253731,19.583815 C24.5037313,20.499422 17.8544776,21.0589595 13.569403,20.8046243 Z" id="Shape" fill="#14AED5"></path>
                    <path d="M12.3134328,18.6682081 C5.95970149,18.2104046 1.03432836,16.5572254 0.270895522,14.6242775 C2.61873856e-14,13.9121387 2.61873856e-14,13.7595376 0.443283582,13.1491329 C0.714179104,12.7676301 1.37910448,12.2080925 1.94552239,11.8774566 L2.97985075,11.2924855 L2.83208955,12.7676301 C2.61044776,15.0820809 2.88134328,15.4890173 4.8761194,15.9976879 C8.66865672,16.9132948 10.0231343,17.0404624 16.4014925,17.0404624 C22.7552239,17.0404624 24.1343284,16.9132948 27.9268657,15.9976879 L29.5768657,15.5907514 L29.5768657,13.4543353 C29.5768657,12.2843931 29.6261194,11.3179191 29.6753731,11.3179191 C30.6850746,11.3179191 32.7783582,13.1745665 32.7783582,14.0393064 C32.7783582,16.2520231 27.680597,18.134104 20.0708955,18.6936416 C16.3522388,18.9734104 16.1552239,18.9734104 12.3134328,18.6682081 Z" id="Shape" fill="#14AED5"></path>
                    <path d="M9.87537313,16.4046243 C8.98880597,16.2774566 7.24029851,15.9213873 6.00895522,15.6416185 L3.71865672,15.1075145 L3.71865672,12.9710983 C3.71865672,1.55144509 17.2634328,-4.17109827 25.119403,3.96763006 C27.5574627,6.46011561 28.8380597,9.69017341 28.8380597,13.2763006 L28.8380597,15.1075145 L27.8283582,15.3872832 C24.6268657,16.2774566 23.1,16.4554913 17.3865672,16.5317919 C14.1358209,16.582659 10.7619403,16.5317919 9.87537313,16.4046243 Z M19.6276119,10.4023121 C21.4253731,8.9017341 22.0902985,6.20578035 21.1298507,4.2982659 C20.1940299,2.4416185 17.8791045,1.1699422 16.0567164,1.52601156 C12.1410448,2.28901734 10.5402985,7.24855491 13.3723881,9.9699422 C14.5052239,11.0635838 15.3179104,11.3433526 17.0664179,11.267052 C18.4701493,11.1907514 18.8395522,11.0635838 19.6276119,10.4023121 Z" id="Shape" fill="#14AED5"></path>
                    <path d="M15.8104478,10.5549133 C13.938806,10.0971098 12.5843284,8.36763006 12.5843284,6.43468208 C12.5843284,4.78150289 13.1753731,3.53526012 14.3574627,2.74682081 C17.238806,0.76300578 20.9328358,2.77225434 20.9574627,6.30751445 C20.9574627,7.73179191 20.5141791,8.72369942 19.4798507,9.61387283 C18.8395522,10.1734104 17.2141791,10.8601156 16.7708955,10.783815 C16.6970149,10.7583815 16.2783582,10.6566474 15.8104478,10.5549133 Z M18.4701493,9.91907514 C19.258209,9.51213873 20.4649254,8.13872832 20.4649254,7.68092486 C20.4649254,7.50289017 20.3664179,7.5283237 20.2186567,7.75722543 C20.0708955,8.01156069 20.0462687,7.65549133 20.1201493,6.73988439 C20.2679104,5.16300578 19.7753731,4.06936416 18.5932836,3.28092486 C17.7313433,2.69595376 15.8104478,2.69595376 14.9485075,3.28092486 C13.7664179,4.06936416 13.2738806,5.16300578 13.4216418,6.73988439 C13.4955224,7.65549133 13.4708955,8.01156069 13.3231343,7.75722543 C13.1261194,7.45202312 13.0768657,7.45202312 13.0768657,7.73179191 C13.0768657,7.90982659 13.4955224,8.52023121 14.0126866,9.05433526 C14.85,9.89364162 15.0716418,10.0208092 15.8597015,9.91907514 C16.3768657,9.84277457 17.1895522,9.74104046 17.7067164,9.69017341 L18.6179104,9.58843931 L17.8791045,9.91907514 C17.4850746,10.1225434 17.2880597,10.2751445 17.4604478,10.300578 C17.6328358,10.300578 18.1007463,10.1225434 18.4701493,9.91907514 Z M13.6925373,4.09479769 C13.938806,3.7132948 14.5298507,3.17919075 15.0223881,2.92485549 C15.5149254,2.64508671 15.761194,2.4416185 15.5641791,2.41618497 C14.9731343,2.41618497 13.5447761,3.7132948 13.1753731,4.60346821 C12.9783582,5.06127168 12.8552239,5.87514451 12.8552239,6.40924855 C12.8798507,7.29942197 12.9044776,7.27398844 13.0768657,6.07861272 C13.1753731,5.36647399 13.4462687,4.47630058 13.6925373,4.09479769 Z M20.6373134,5.6716763 C20.5880597,5.34104046 20.538806,5.59537572 20.538806,6.23121387 C20.538806,6.86705202 20.5880597,7.12138728 20.6373134,6.81618497 C20.6865672,6.48554913 20.6865672,5.97687861 20.6373134,5.6716763 Z M20.2432836,4.24739884 C19.8738806,3.53526012 18.519403,2.41618497 18.0514925,2.41618497 C17.8052239,2.4416185 18.0514925,2.67052023 18.5440299,2.92485549 C19.0365672,3.20462428 19.6522388,3.76416185 19.8738806,4.19653179 C20.3664179,5.01040462 20.6619403,5.06127168 20.2432836,4.24739884 Z M17.2141791,2.23815029 C16.9679104,2.18728324 16.5738806,2.18728324 16.3522388,2.23815029 C16.1059701,2.31445087 16.3029851,2.36531792 16.7708955,2.36531792 C17.238806,2.36531792 17.4358209,2.31445087 17.2141791,2.23815029 Z" id="Shape" fill="#14AED5"></path>
                    <path d="M14.3328358,9.13063584 C13.9141791,8.77456647 13.569403,8.34219653 13.569403,8.18959538 C13.569403,8.01156069 13.741791,8.1132948 13.938806,8.36763006 C14.1358209,8.64739884 14.6037313,9.07976879 14.9731343,9.33410405 C15.3671642,9.58843931 15.5395522,9.79190751 15.3671642,9.79190751 C15.219403,9.79190751 14.7514925,9.4867052 14.3328358,9.13063584 Z" id="Shape" fill="#14AED5"></path>
                    <path d="M16.5246269,9.28323699 C16.5246269,9.15606936 16.6496269,9.02890173 16.7746269,9.02890173 C16.9246269,9.02890173 17.0246269,9.15606936 17.0246269,9.28323699 C17.0246269,9.43583815 16.9246269,9.53757225 16.7746269,9.53757225 C16.6496269,9.53757225 16.5246269,9.43583815 16.5246269,9.28323699 Z" id="Shape" fill="#76DC00"></path>
                    <path d="M19.1597015,8.8 C19.5291045,8.39306358 19.8985075,8.1132948 19.9477612,8.16416185 C20.0955224,8.31676301 18.9626866,9.53757225 18.691791,9.53757225 C18.5686567,9.53757225 18.7656716,9.20693642 19.1597015,8.8 Z" id="Shape" fill="#14AED5"></path>
                    <path d="M15.2932836,9.02890173 C15.2932836,8.9017341 15.391791,8.77456647 15.5149254,8.77456647 C15.6626866,8.77456647 15.8350746,8.9017341 15.9089552,9.02890173 C15.9828358,9.18150289 15.8843284,9.28323699 15.6873134,9.28323699 C15.4656716,9.28323699 15.2932836,9.18150289 15.2932836,9.02890173 Z" id="Shape" fill="#76DC00"></path>
                    <path d="M17.5097015,9.02890173 C17.5097015,8.9017341 17.1402985,8.77456647 16.6970149,8.77456647 C16.2537313,8.77456647 15.7365672,8.62196532 15.588806,8.46936416 C15.3425373,8.2150289 15.219403,8.2150289 15.0716418,8.49479769 C14.9485075,8.67283237 14.7268657,8.74913295 14.5791045,8.64739884 C14.3574627,8.52023121 14.3574627,8.39306358 14.5544776,8.13872832 C14.8253731,7.80809249 14.308209,6.43468208 13.9141791,6.48554913 C13.7910448,6.51098266 13.6679104,6.38381503 13.6186567,6.23121387 C13.5447761,6.05317919 13.6679104,5.97687861 13.8402985,6.02774566 C14.0373134,6.10404624 14.308209,5.84971098 14.5052239,5.39190751 C14.6776119,4.95953757 14.8746269,4.70520231 14.9485075,4.78150289 C15.0223881,4.85780347 14.9485075,5.16300578 14.8007463,5.46820809 C14.1604478,6.71445087 15.3425373,8.52023121 16.7955224,8.52023121 C17.8298507,8.52023121 18.8149254,7.50289017 18.8395522,6.46011561 C18.8395522,5.97687861 18.7410448,5.36647399 18.6179104,5.11213873 C18.4701493,4.75606936 18.4947761,4.67976879 18.691791,4.80693642 C19.1104478,5.0867052 19.3074627,6.61271676 18.9873134,7.24855491 C18.7902985,7.6300578 18.7902985,7.88439306 18.9626866,8.1132948 C19.2335821,8.44393064 19.0858209,8.77456647 18.6671642,8.77456647 C18.5440299,8.77456647 18.4947761,8.59653179 18.5932836,8.39306358 C18.7164179,8.06242775 18.6425373,8.03699422 18.1746269,8.29132948 C17.8544776,8.49479769 17.7559701,8.64739884 17.9529851,8.72369942 C18.3716418,8.85086705 18.3223881,9.28323699 17.8791045,9.28323699 C17.6820896,9.28323699 17.5097015,9.18150289 17.5097015,9.02890173 Z" id="Shape" fill="#76DC00"></path>
                    <path d="M15.6380597,7.68092486 C13.8156716,6.05317919 15.9828358,3.43352601 17.9529851,4.85780347 C18.7656716,5.44277457 18.7164179,7.04508671 17.8544776,7.73179191 C17.0171642,8.41849711 16.4507463,8.39306358 15.6380597,7.68092486 Z" id="Shape" fill="#417505"></path>
                    <path d="M13.8156716,7.50289017 C13.8156716,7.37572254 13.9406716,7.24855491 14.0656716,7.24855491 C14.2156716,7.24855491 14.3156716,7.37572254 14.3156716,7.50289017 C14.3156716,7.65549133 14.2156716,7.75722543 14.0656716,7.75722543 C13.9406716,7.75722543 13.8156716,7.65549133 13.8156716,7.50289017 Z" id="Shape" fill="#76DC00"></path>
                    <path d="M19.2335821,7.50289017 C19.2335821,7.37572254 19.3585821,7.24855491 19.4835821,7.24855491 C19.6335821,7.24855491 19.7335821,7.37572254 19.7335821,7.50289017 C19.7335821,7.65549133 19.6335821,7.75722543 19.4835821,7.75722543 C19.3585821,7.75722543 19.2335821,7.65549133 19.2335821,7.50289017 Z" id="Shape" fill="#76DC00"></path>
                    <path d="M19.4798507,6.38381503 C19.4798507,6.15491329 19.6048507,5.97687861 19.7298507,5.97687861 C19.8798507,5.97687861 19.9798507,6.07861272 19.9798507,6.20578035 C19.9798507,6.3583815 19.8798507,6.53641618 19.7298507,6.61271676 C19.6048507,6.68901734 19.4798507,6.58728324 19.4798507,6.38381503 Z" id="Shape" fill="#76DC00"></path>
                    <path d="M13.8156716,5.0867052 C13.8156716,4.88323699 13.9406716,4.70520231 14.0656716,4.70520231 C14.2156716,4.70520231 14.3156716,4.88323699 14.3156716,5.0867052 C14.3156716,5.29017341 14.2156716,5.46820809 14.0656716,5.46820809 C13.9406716,5.46820809 13.8156716,5.29017341 13.8156716,5.0867052 Z" id="Shape" fill="#76DC00"></path>
                    <path d="M19.2335821,5.06127168 C19.2335821,4.85780347 19.3585821,4.75606936 19.4835821,4.83236994 C19.6335821,4.90867052 19.7335821,5.0867052 19.7335821,5.23930636 C19.7335821,5.36647399 19.6335821,5.46820809 19.4835821,5.46820809 C19.3585821,5.46820809 19.2335821,5.29017341 19.2335821,5.06127168 Z" id="Shape" fill="#76DC00"></path>
                    <path d="M14.7022388,4.45086705 C14.308209,4.32369942 14.2835821,4.24739884 14.5544776,4.06936416 C14.7514925,3.94219653 14.9238806,3.96763006 14.9731343,4.12023121 C15.1208955,4.52716763 16.5246269,3.73872832 16.5246269,3.28092486 C16.5246269,3.07745665 16.6477612,2.92485549 16.7708955,2.92485549 C16.9186567,2.92485549 17.0171642,3.10289017 17.0171642,3.30635838 C17.0171642,3.50982659 17.3619403,3.84046243 17.7559701,4.06936416 C18.1746269,4.2982659 18.4947761,4.34913295 18.4947761,4.19653179 C18.4947761,4.06936416 18.6671642,3.94219653 18.8641791,3.94219653 C19.061194,3.94219653 19.2335821,4.04393064 19.2335821,4.17109827 C19.2335821,4.57803468 18.2485075,4.65433526 17.5097015,4.2982659 C16.8940299,3.96763006 16.6970149,3.96763006 15.9828358,4.27283237 C15.5395522,4.47630058 14.9485075,4.55260116 14.7022388,4.45086705 Z" id="Shape" fill="#76DC00"></path>
                    <path d="M15.4164179,3.43352601 C15.4902985,3.30635838 15.6626866,3.17919075 15.8104478,3.17919075 C15.9335821,3.17919075 16.0320896,3.30635838 16.0320896,3.43352601 C16.0320896,3.58612717 15.8597015,3.68786127 15.6380597,3.68786127 C15.4410448,3.68786127 15.3425373,3.58612717 15.4164179,3.43352601 Z" id="Shape" fill="#76DC00"></path>
                    <path d="M17.6328358,3.46602141 C17.7313433,3.28285214 17.9037313,3.22179572 18.0268657,3.31338035 C18.3716418,3.58813425 18.2977612,3.77130352 17.8544776,3.77130352 C17.6574627,3.77130352 17.5589552,3.61866246 17.6328358,3.46602141 Z" id="Shape" fill="#76DC00"></path>
                </g>
                <g id="s-ai-text" transform="translate(39.000000, 14.000000)">
                    <path d="M157.7,8 L154.275,1.125 L159.175,1.125 L164.075,1.125 L163.55,1.95 L163.05,2.75 L160.275,2.825 C158.775,2.85 157.525,2.925 157.525,2.975 C157.525,3.025 158.35,4.775 159.375,6.9 L161.225,10.75 L163.575,5.95 L165.9,1.125 L167.1,1.125 L168.3,1.125 L164.85,8 C162.95,11.775 161.35,14.875 161.275,14.875 C161.2,14.875 159.6,11.775 157.7,8 Z" id="Shape" fill="#14AED5"></path>
                    <path d="M13.85,13.75 C13.775,13.525 13.75,11.7 13.825,9.675 C13.9,6.5 14,5.825 14.475,4.825 C15.575,2.6 18.2,0.875 20.525,0.875 C22.825,0.875 25.425,2.575 26.425,4.725 C26.975,5.9 27.025,6.325 27.025,10.075 L27.025,14.15 L26.1,14.075 L25.15,14 L25.025,9.875 C24.9,6.1 24.85,5.675 24.325,4.95 C22.625,2.575 19.3,2.275 17.25,4.35 C16.025,5.575 15.775,6.625 15.775,10.7 L15.775,14.125 L14.9,14.125 C14.325,14.125 13.95,13.975 13.85,13.75 Z" id="Shape" fill="#14AED5"></path>
                    <path d="M29.775,7.65 L29.775,1.125 L30.775,1.125 L31.775,1.125 L31.775,6.625 L31.775,12.125 L34.9,12.125 C37.775,12.125 38.05,12.075 38.525,11.575 C38.85,11.2 39.025,10.7 39.025,10 C39.025,8.55 38.5,8.125 36.7,8.125 L35.275,8.125 L37.025,4.625 L38.775,1.125 L39.925,1.125 L41.05,1.125 L39.725,3.65 C38.675,5.675 38.475,6.225 38.775,6.325 C38.975,6.4 39.55,6.85 40.075,7.35 C41.35,8.625 41.575,10.15 40.75,11.8 C39.7,13.875 39.4,14 34.25,14.075 L29.775,14.175 L29.775,7.65 Z" id="Shape" fill="#14AED5"></path>
                    <path d="M42.525,13.875 C42.525,13.725 44.05,10.575 45.925,6.825 L49.325,0.05 L52.8,6.775 C54.7,10.475 56.25,13.65 56.275,13.825 C56.275,14.05 55.975,14.125 55.225,14.075 L54.15,14 L51.775,9.325 C50.475,6.725 49.35,4.625 49.275,4.65 C49.2,4.65 48.1,6.8 46.85,9.4 L44.525,14.125 L43.525,14.125 C42.975,14.125 42.525,14 42.525,13.875 Z" id="Shape" fill="#14AED5"></path>
                    <path d="M58.45,13.975 C58.35,13.875 58.275,10.95 58.275,7.45 L58.275,1.125 L63.275,1.125 L68.275,1.125 L68.275,2 L68.275,2.875 L64.275,2.875 L60.275,2.875 L60.275,7.5 L60.275,12.125 L64.3,12.125 L68.3,12.125 L68.225,13.075 L68.15,14 L63.375,14.075 C60.775,14.1 58.55,14.05 58.45,13.975 Z" id="Shape" fill="#14AED5"></path>
                    <path d="M70.95,13.975 C70.85,13.875 70.775,13.425 70.775,12.95 L70.775,12.125 L73.025,12.125 L75.275,12.125 L75.275,7.5 L75.275,2.875 L73.025,2.875 L70.775,2.875 L70.775,2 L70.775,1.125 L76.4,1.125 L82.025,1.125 L82.025,2 L82.025,2.85 L79.75,2.925 L77.5,3 L77.5,7.5 L77.5,12 L79.775,12.075 L82.05,12.15 L81.975,13.075 L81.9,14 L76.5,14.075 C73.55,14.1 71.05,14.05 70.95,13.975 Z" id="Shape" fill="#14AED5"></path>
                    <path d="M84.7,13.975 C84.6,13.875 84.525,10.95 84.525,7.45 L84.525,1.125 L89.525,1.125 L94.525,1.125 L94.525,2 L94.525,2.875 L90.525,2.875 L86.525,2.875 L86.475,8.45 L86.4,14 L85.65,14.075 C85.225,14.125 84.8,14.075 84.7,13.975 Z" id="Shape" fill="#14AED5"></path>
                    <polygon id="Shape" fill="#76DC00" points="97.025 7.65 97.025 1.125 102.025 1.125 107.025 1.125 107.025 2 107.025 2.875 103.025 2.875 99.025 2.875 98.975 8.45 98.9 14 97.975 14.075 97.025 14.15"></polygon>
                    <path d="M109.525,7.625 L109.525,1.125 L114.4,1.125 L119.275,1.125 L119.275,2 L119.275,2.875 L115.4,2.875 L111.525,2.875 L111.525,7.5 L111.525,12.125 L115.375,12.125 L119.225,12.125 L119.325,13 C119.375,13.5 119.375,13.95 119.3,14 C119.25,14.075 117.025,14.125 114.35,14.125 L109.525,14.125 L109.525,7.625 Z" id="Shape" fill="#76DC00"></path>
                    <path d="M122.2,13.95 C122.1,13.875 122.025,10.95 122.025,7.45 L122.025,1.125 L123.025,1.125 L124.025,1.125 L124.075,6.275 L124.15,11.4 L127.775,6.275 L131.4,1.15 L132.85,1.125 L134.275,1.125 L134.225,7.575 L134.15,14 L133.15,14 L132.15,14 L132.15,8.925 C132.15,6.15 132.1,3.875 132.025,3.875 C131.95,3.875 130.275,6.175 128.3,9 L124.75,14.125 L123.55,14.125 C122.9,14.125 122.275,14.05 122.2,13.95 Z" id="Shape" fill="#76DC00"></path>
                    <path d="M170.125,13.775 C170.05,13.575 170.025,13.15 170.075,12.825 C170.15,12.275 170.25,12.25 172.475,12.175 L174.775,12.1 L174.775,7.5 L174.775,2.875 L172.4,2.875 L170.025,2.875 L170.025,2 L170.025,1.125 L175.65,1.125 L181.275,1.125 L181.275,2 L181.275,2.875 L179.025,2.875 L176.775,2.875 L176.775,7.5 L176.775,12.125 L179.05,12.125 L181.3,12.125 L181.225,13.075 L181.15,14 L175.7,14.075 C171.15,14.125 170.25,14.075 170.125,13.775 Z" id="Shape" fill="#14AED5"></path>
                    <path d="M1.425,13.35 C-0.45,11.875 -0.475,9.125 1.4,7.375 C2.025,6.8 2.3,6.75 5.15,6.625 C7.7,6.525 8.3,6.425 8.75,6.025 C9.425,5.4 9.45,4.05 8.775,3.375 C8.325,2.925 7.95,2.875 4.3,2.875 C0.4,2.875 0.325,2.875 0.175,2.325 C-0.15,1.1 -0.225,1.125 4.475,1.125 C9.35,1.125 9.775,1.225 10.7,2.6 C11.45,3.7 11.475,5.6 10.8,6.725 C9.95,8.1 9.125,8.375 5.95,8.45 C3.525,8.5 3,8.575 2.55,8.975 C1.875,9.6 1.85,10.95 2.525,11.625 C2.975,12.075 3.35,12.125 7.15,12.125 L11.275,12.125 L11.275,13 L11.275,13.875 L6.675,13.875 C2.4,13.875 2.05,13.85 1.425,13.35 Z" id="Shape" fill="#14AED5"></path>
                    <path d="M138.075,13.25 C137.05,12.4 136.7,11.375 136.825,9.825 C136.95,8.7 137.1,8.4 137.975,7.575 L139,6.625 L141.575,6.6 C143,6.6 144.35,6.55 144.6,6.5 C146.075,6.225 146.525,4.3 145.375,3.4 C144.775,2.925 144.375,2.875 140.75,2.875 L136.775,2.875 L136.775,2 L136.775,1.125 L141.225,1.125 C145.125,1.125 145.75,1.175 146.425,1.6 C148.6,2.925 148.5,6.625 146.225,7.975 C145.75,8.275 144.875,8.375 142.825,8.375 C140.45,8.375 140,8.45 139.425,8.9 C138.675,9.475 138.55,10.7 139.125,11.525 C139.45,11.95 139.9,12 143.7,12.125 L147.9,12.25 L147.975,13.075 L148.05,13.875 L143.425,13.875 C138.875,13.875 138.8,13.875 138.075,13.25 Z" id="Shape" fill="#76DC00"></path>
                    <polygon id="Shape" fill="#14AED5" points="61.525 7.25 61.525 6.375 64.775 6.375 68.025 6.375 68.025 7.25 68.025 8.125 64.775 8.125 61.525 8.125"></polygon>
                    <polygon id="Shape" fill="#76DC00" points="112.775 7.25 112.775 6.375 116.025 6.375 119.275 6.375 119.275 7.25 119.275 8.125 116.025 8.125 112.775 8.125"></polygon>
                    <path d="M150.4,3.275 C149.5,2.375 150.025,1.125 151.3,1.125 C152.775,1.125 153.125,2.9 151.775,3.625 C151.125,3.975 151.075,3.95 150.4,3.275 Z" id="Shape" fill="#14AED5"></path>
                </g>
            </g>
        </g>
    </g>
</svg>